<?xml version="1.0" encoding="UTF-8" standalone="no"?>
<svg
   xmlns:dc="http://purl.org/dc/elements/1.1/"
   xmlns:cc="http://creativecommons.org/ns#"
   xmlns:rdf="http://www.w3.org/1999/02/22-rdf-syntax-ns#"
   xmlns:svg="http://www.w3.org/2000/svg"
   xmlns="http://www.w3.org/2000/svg"
   viewBox="0 0 765 990"
   height="990"
   width="765"
   xml:space="preserve"
   version="1.1"
   id="svg2"><metadata
     id="metadata8"><rdf:RDF><cc:Work
         rdf:about=""><dc:format>image/svg+xml</dc:format><dc:type
           rdf:resource="http://purl.org/dc/dcmitype/StillImage" /></cc:Work></rdf:RDF></metadata><defs
     id="defs6"><clipPath
       id="clipPath18"
       clipPathUnits="userSpaceOnUse"><path
         id="path20"
         d="M 0,792 612,792 612,0 0,0 0,792 Z" /></clipPath></defs><g
     transform="matrix(1.25,0,0,-1.25,0,990)"
     id="g10"><path
       id="path12"
       style="fill:#ffffff;fill-opacity:1;fill-rule:evenodd;stroke:none"
       d="m 16.245,684.754 578.268,0 0,-578.268 -578.268,0 0,578.268 z" /><g
       id="g14"><g
         clip-path="url(#clipPath18)"
         id="g16"><g
           transform="translate(266.5811,353.7402)"
           id="g22"><path
             id="path24"
             style="fill:#3e94ce;fill-opacity:1;fill-rule:evenodd;stroke:none"
             d="m 0,0 -22.445,0 c 0,0 -0.926,6.709 -1.619,9.023 -0.694,2.315 -1.389,4.395 -3.702,9.721 -1.621,3.469 -4.859,6.938 -4.859,6.938 L -36.328,19.436 -42.113,9.486 -47.898,0 -76.59,0 l 29.85,53.449 15.736,0 11.336,0 c 0,0 4.859,-3.701 6.479,-5.553 2.777,-3.009 4.626,-6.013 5.322,-8.791 0.463,-1.16 0,0 0,0 l 3.933,6.245 4.397,8.099 29.848,0 L 0,0 Z" /></g><g
           transform="translate(422.5342,353.7402)"
           id="g26"><path
             id="path28"
             style="fill:#3e94ce;fill-opacity:1;fill-rule:evenodd;stroke:none"
             d="m 0,0 -22.445,0 c 0,0 -0.926,6.48 -1.619,9.023 -0.694,2.315 -1.389,4.395 -3.702,9.721 -1.619,3.469 -4.859,6.938 -4.859,6.938 L -36.328,19.436 -42.111,9.252 -47.898,0 l -28.69,0 29.848,53.682 15.736,0 11.106,0 c 0,0 5.089,-3.703 6.709,-5.555 2.777,-3.24 4.628,-6.244 5.322,-8.793 0.465,-1.389 0,0 0,0 l 3.933,6.248 4.397,8.1 29.848,0 L 0,0 Z" /></g><g
           transform="translate(538.6904,353.9688)"
           id="g30"><path
             id="path32"
             style="fill:#3e94ce;fill-opacity:1;fill-rule:evenodd;stroke:none"
             d="m 0,0 -22.213,0 c 0,0 -1.158,6.48 -1.851,9.023 -0.694,2.315 -1.159,4.401 -3.471,9.493 -1.852,3.697 -5.09,7.172 -5.09,7.172 L -36.328,19.436 -42.113,9.258 -47.898,0 l -28.69,0 29.848,53.453 15.967,0 11.103,0 c 0,0 5.092,-3.703 6.481,-5.555 3.009,-3.24 4.628,-6.015 5.552,-8.793 0.231,-1.154 0,0 0,0 l 3.703,6.249 4.397,8.099 29.848,0 L 0,0 Z" /></g><g
           transform="translate(458.6318,407.6523)"
           id="g34"><path
             id="path36"
             style="fill:#3e94ce;fill-opacity:1;fill-rule:evenodd;stroke:none"
             d="m 0,0 -31.006,-53.912 29.385,0 L 28.227,0 0,0 Z" /></g><g
           transform="translate(474.5947,430.3281)"
           id="g38"><path
             id="path40"
             style="fill:#3e94ce;fill-opacity:1;fill-rule:evenodd;stroke:none"
             d="m 0,0 -9.949,-17.123 21.982,0 L 21.291,0 0,0 Z m 25.916,2.314 -12.031,-21.982 -28.461,0 13.191,21.982 27.301,0 z" /></g><g
           transform="translate(560.9033,357.9063)"
           id="g42"><path
             id="path44"
             style="fill:#3e94ce;fill-opacity:1;fill-rule:evenodd;stroke:none"
             d="m 0,0 0,2.314 1.619,0 C 2.314,2.314 3.24,2.08 3.24,1.154 3.24,0 2.314,0 1.389,0 L 0,0 Z m 0,-0.926 1.389,0 1.851,-3.24 1.156,0 -2.082,3.24 c 1.155,0.229 1.848,0.692 1.848,2.08 0,1.389 -0.693,2.086 -2.31,2.086 l -2.778,0 0,-7.406 0.926,0 0,3.24 z m 1.389,-6.017 c 3.468,0 6.246,2.777 6.246,6.48 0,3.703 -2.778,6.475 -6.246,6.475 -3.473,0 -6.25,-2.772 -6.25,-6.475 0,-3.703 2.777,-6.48 6.25,-6.48 m -5.092,6.48 c 0,3.006 2.314,5.32 5.092,5.32 2.773,0 5.09,-2.314 5.09,-5.32 0,-3.012 -2.317,-5.32 -5.09,-5.32 -2.778,0 -5.092,2.308 -5.092,5.32" /></g><g
           transform="translate(48.0225,381.1094)"
           id="g46"><path
             id="path48"
             style="fill:#f25433;fill-opacity:1;fill-rule:nonzero;stroke:none"
             d="m 0,0 39.797,66.408 2.025,3.377 3.891,0 82.373,0 11.602,0 -5.551,-10.211 -36.096,-66.406 -1.967,-3.621 -4.084,0 -86.076,0 -12.18,0 L 0,0 Z M 49.605,55.955 18.096,3.381 l 69.812,0 28.576,52.574 -66.879,0 z" /></g><g
           transform="translate(70.0029,350.7988)"
           id="g50"><path
             id="path52"
             style="fill:#f36035;fill-opacity:1;fill-rule:nonzero;stroke:none"
             d="m 0,0 39.799,66.639 2.017,3.379 3.899,0 82.373,0 11.594,0 -5.516,-10.184 -36.096,-66.643 -1.976,-3.644 -4.102,0 -86.076,0 -12.158,0 L 0,0 Z M 49.613,56.186 18.074,3.375 l 69.817,0 28.603,52.811 -66.881,0 z" /></g><g
           transform="translate(321.6514,388.9082)"
           id="g54"><path
             id="path56"
             style="fill:#3e94ce;fill-opacity:1;fill-rule:evenodd;stroke:none"
             d="m 0,0 c 0,0 -0.465,-0.463 -1.158,-1.617 -0.463,-0.697 -1.619,-3.012 -2.545,-4.166 -0.695,-1.155 -2.317,-4.395 -2.776,-5.321 -0.462,-0.697 -1.388,-2.548 -1.851,-3.468 -0.233,-0.698 -0.463,-1.16 -0.233,-2.315 0,-0.234 0.233,-0.697 1.159,-1.16 l 2.314,0 c 0,0 1.848,-0.463 3.238,1.623 0.694,1.154 3.704,6.938 3.704,6.938 l 3.238,6.017 0.691,1.617 c 0,0 0.465,1.389 0,2.086 -0.459,0.692 -0.922,0.692 -1.152,0.692 -0.234,0 -2.777,0.234 -3.242,0 C 0.693,0.697 0,0 0,0 m 7.633,19.67 c 3.935,0 7.638,-0.926 10.644,-1.621 3.934,-1.156 7.407,-3.701 9.489,-5.32 3.007,-2.315 4.859,-5.555 6.015,-8.1 2.082,-4.166 2.082,-7.406 1.852,-10.412 -0.231,-3.006 -0.695,-5.321 -2.778,-9.721 -0.925,-2.771 -3.007,-6.012 -5.785,-9.252 -3.007,-3.24 -5.552,-5.555 -7.172,-6.48 -2.543,-1.618 -5.552,-3.703 -10.414,-5.092 -2.777,-0.926 -6.013,-1.846 -9.716,-2.543 -2.315,-0.229 -4.397,-0.463 -6.94,-0.463 -1.851,0 -5.324,0.234 -7.406,0.463 -1.619,0.234 -6.479,1.154 -9.024,2.086 -0.925,0.457 -2.082,0.92 -3.933,1.846 -2.084,1.16 -5.09,4.166 -6.711,6.714 -1.156,1.852 -1.621,3.006 -2.315,5.086 -1.156,3.012 -0.693,9.258 0.233,12.961 0.461,3.24 2.545,7.635 4.396,10.412 2.776,4.166 7.172,8.791 11.106,11.799 1.158,0.696 2.314,1.389 4.629,2.778 1.849,0.925 4.164,1.851 5.783,2.312 1.621,0.465 3.935,1.158 6.016,1.621 3.007,0.463 7.869,1.156 12.031,0.926" /></g></g></g></g></svg>